<svg width="28" height="21" viewBox="0 0 28 21" fill="none" xmlns="http://www.w3.org/2000/svg">
<path fill-rule="evenodd" clip-rule="evenodd" d="M0 1.5C0 0.671573 0.671573 0 1.5 0H26.5C27.3284 0 28 0.671573 28 1.5C28 2.32843 27.3284 3 26.5 3H1.5C0.671572 3 0 2.32843 0 1.5ZM16 10.5C16 9.67157 16.6716 9 17.5 9H26.5C27.3284 9 28 9.67157 28 10.5C28 11.3284 27.3284 12 26.5 12H17.5C16.6716 12 16 11.3284 16 10.5ZM9.5 18C8.67157 18 8 18.6716 8 19.5C8 20.3284 8.67157 21 9.5 21H26.5C27.3284 21 28 20.3284 28 19.5C28 18.6716 27.3284 18 26.5 18H9.5Z" fill="#3C8946"/>
</svg>
